<?xml version="1.0" encoding="utf-8"?>
<!-- Generator: Adobe Illustrator 26.2.1, SVG Export Plug-In . SVG Version: 6.00 Build 0)  -->
<svg version="1.1" id="_xF91C_迹_x5F_1" xmlns="http://www.w3.org/2000/svg" xmlns:xlink="http://www.w3.org/1999/xlink" x="0px"
	 y="0px" viewBox="0 0 600 450" style="enable-background:new 0 0 600 450;" xml:space="preserve">
<style type="text/css">
	.st0{fill:url(#SVGID_1_);}
	.st1{fill:url(#SVGID_00000101101165447413226610000002017928728905315461_);}
	.st2{fill:url(#SVGID_00000031908333250057950420000003480519751355031466_);}
	.st3{opacity:0.8;fill:#0C0F38;}
	.st4{opacity:0.8;fill:#D4088C;}
	.st5{fill:#6EE8FC;}
	.st6{fill:#D4088C;}
	.st7{fill:#6EE1F8;}
	.st8{fill:url(#SVGID_00000172435545036999371350000018062195781453313203_);}
	.st9{fill:url(#SVGID_00000114781651798415383300000016281667120029077893_);}
	.st10{fill:#6DE0F6;}
	.st11{opacity:0.5;fill:#D4088C;}
	.st12{opacity:0.3;fill:#D4088C;}
	.st13{opacity:0.15;fill:#D4088C;}
	.st14{fill:url(#SVGID_00000030486526591347599080000011468654073734554757_);}
	.st15{fill:#267FE5;}
	.st16{fill:#161242;}
	.st17{opacity:0.5;fill:#13113D;}
	.st18{fill:url(#SVGID_00000007390714541557107900000005560501562341739648_);}
	.st19{opacity:0.5;fill:#38025B;}
	.st20{fill:url(#SVGID_00000173148129672548177590000016005209378079588746_);}
	.st21{fill:url(#SVGID_00000009556424437787956000000006045683198511014839_);}
</style>
<g>
	
		<linearGradient id="SVGID_1_" gradientUnits="userSpaceOnUse" x1="392.4388" y1="1018.9197" x2="452.8265" y2="1018.9197" gradientTransform="matrix(-0.7071 0.7071 -0.7071 -0.7071 1119.8167 734.1299)">
		<stop  offset="0" style="stop-color:#D4088C"/>
		<stop  offset="0.045" style="stop-color:#CC088C"/>
		<stop  offset="0.4621" style="stop-color:#85078A"/>
		<stop  offset="0.7624" style="stop-color:#590689"/>
		<stop  offset="0.914" style="stop-color:#480689"/>
	</linearGradient>
	<circle class="st0" cx="100.49" cy="312.5" r="30.19"/>
	
		<linearGradient id="SVGID_00000160901893496497200740000013450036946977305489_" gradientUnits="userSpaceOnUse" x1="256.0724" y1="1126.1301" x2="281.0798" y2="1126.1301" gradientTransform="matrix(-1 0 0 -1 408.1528 1225.2839)">
		<stop  offset="0" style="stop-color:#6EE8FC"/>
		<stop  offset="0.1572" style="stop-color:#6AE2FB"/>
		<stop  offset="0.3681" style="stop-color:#5ED1F7"/>
		<stop  offset="0.6094" style="stop-color:#4BB5F1"/>
		<stop  offset="0.8716" style="stop-color:#308EE8"/>
		<stop  offset="0.9624" style="stop-color:#267FE5"/>
	</linearGradient>
	<circle style="fill:url(#SVGID_00000160901893496497200740000013450036946977305489_);" cx="139.58" cy="99.15" r="12.5"/>
	
		<linearGradient id="SVGID_00000089545133353654139470000017398087891985410944_" gradientUnits="userSpaceOnUse" x1="121.06" y1="794.645" x2="177.2807" y2="794.645" gradientTransform="matrix(0.8955 0.445 -0.445 0.8955 720.2325 -555.8404)">
		<stop  offset="0" style="stop-color:#6EE8FC"/>
		<stop  offset="0.1572" style="stop-color:#6AE2FB"/>
		<stop  offset="0.3681" style="stop-color:#5ED1F7"/>
		<stop  offset="0.6094" style="stop-color:#4BB5F1"/>
		<stop  offset="0.8716" style="stop-color:#308EE8"/>
		<stop  offset="0.9624" style="stop-color:#267FE5"/>
	</linearGradient>
	<circle style="fill:url(#SVGID_00000089545133353654139470000017398087891985410944_);" cx="497.79" cy="220.95" r="22.47"/>
	<path class="st3" d="M503.55,311.97c-9.04,1.75-18.83-1.05-21.86-6.27c-3.04-5.22,1.83-10.87,10.86-12.62
		c9.04-1.75,18.83,1.05,21.86,6.27C517.45,304.57,512.58,310.22,503.55,311.97z"/>
	<path class="st3" d="M108.5,413.73c-12.57,2.44-26.19-1.47-30.42-8.73c-4.23-7.26,2.54-15.12,15.11-17.56
		c12.57-2.44,26.19,1.47,30.42,8.73C127.84,403.43,121.08,411.29,108.5,413.73z"/>
	<path class="st3" d="M142.32,149.7c-4.51,0.88-9.4-0.53-10.92-3.13c-1.52-2.61,0.91-5.43,5.43-6.3s9.4,0.53,10.92,3.13
		C149.27,146,146.84,148.82,142.32,149.7z"/>
	<g>
		<path class="st4" d="M225.38,47.13c0,1.77-1.43,3.2-3.2,3.2c-1.77,0-3.2-1.43-3.2-3.2s1.43-3.2,3.2-3.2
			C223.95,43.93,225.38,45.36,225.38,47.13z"/>
		<circle class="st4" cx="166.03" cy="372.86" r="3.86"/>
		<path class="st5" d="M143.55,355.78c0,1.1-0.89,1.99-1.99,1.99c-1.1,0-1.99-0.89-1.99-1.99c0-1.1,0.89-1.99,1.99-1.99
			C142.66,353.79,143.55,354.68,143.55,355.78z"/>
		<path class="st5" d="M480.78,282.44c0,1.13-0.92,2.05-2.05,2.05s-2.05-0.92-2.05-2.05s0.92-2.05,2.05-2.05
			S480.78,281.3,480.78,282.44z"/>
		<g>
			<path class="st5" d="M100.85,143.83c0,1.6-1.29,2.89-2.89,2.89s-2.89-1.29-2.89-2.89c0-1.6,1.29-2.89,2.89-2.89
				S100.85,142.23,100.85,143.83z"/>
			<path class="st5" d="M316.87,38.43c0,1.6-1.29,2.89-2.89,2.89c-1.6,0-2.89-1.29-2.89-2.89c0-1.6,1.29-2.89,2.89-2.89
				C315.58,35.54,316.87,36.84,316.87,38.43z"/>
			<path class="st5" d="M112.62,137.42c0,0.88-0.72,1.6-1.6,1.6c-0.88,0-1.6-0.72-1.6-1.6c0-0.88,0.72-1.6,1.6-1.6
				C111.9,135.82,112.62,136.54,112.62,137.42z"/>
		</g>
		<path class="st6" d="M388.13,48.75c0,1.04-0.85,1.89-1.89,1.89c-1.04,0-1.89-0.85-1.89-1.89c0-1.04,0.85-1.89,1.89-1.89
			C387.28,46.86,388.13,47.71,388.13,48.75z"/>
	</g>
	<g>
		<g>
			<polygon class="st7" points="110.42,238.6 109.73,236.13 115.23,234.59 113.69,229.1 116.16,228.4 118.39,236.37 			"/>
		</g>
		<g>
			<polygon class="st7" points="105.57,247.22 104.88,244.75 110.38,243.21 108.84,237.71 111.31,237.02 113.54,244.99 			"/>
		</g>
		<g>
			<polygon class="st7" points="110.72,244.45 108.49,236.48 116.46,234.25 117.16,236.72 111.66,238.26 113.19,243.75 			"/>
		</g>
	</g>
	<path class="st7" d="M300.39,54.87c-3.37,0-6.11-2.74-6.11-6.11c0-3.37,2.74-6.11,6.11-6.11c3.37,0,6.11,2.74,6.11,6.11
		C306.5,52.13,303.76,54.87,300.39,54.87z M300.39,45.21c-1.96,0-3.55,1.59-3.55,3.54c0,1.96,1.59,3.55,3.55,3.55
		c1.95,0,3.54-1.59,3.54-3.55C303.93,46.8,302.34,45.21,300.39,45.21z"/>
	<path class="st7" d="M434.48,360.72l-6.94-6.94l6.94-6.94l6.94,6.94L434.48,360.72z M431.18,353.79l3.31,3.31l3.31-3.31l-3.31-3.31
		L431.18,353.79z"/>
	<g>
		
			<rect x="452.52" y="106.89" transform="matrix(0.7071 -0.7071 0.7071 0.7071 53.6224 353.731)" class="st6" width="2.57" height="10.5"/>
		
			<rect x="448.55" y="110.85" transform="matrix(0.7071 -0.7071 0.7071 0.7071 53.631 353.7451)" class="st6" width="10.5" height="2.57"/>
	</g>
</g>
<g>
	
		<linearGradient id="SVGID_00000104679623941531045840000009841302435740219065_" gradientUnits="userSpaceOnUse" x1="153.1644" y1="324.5117" x2="432.6072" y2="324.5117">
		<stop  offset="0" style="stop-color:#D4088C"/>
		<stop  offset="0.2258" style="stop-color:#8D139B"/>
		<stop  offset="0.5108" style="stop-color:#6EE1F8"/>
		<stop  offset="0.7796" style="stop-color:#6EE8FC"/>
		<stop  offset="1" style="stop-color:#6EE8FC"/>
	</linearGradient>
	<path style="fill:url(#SVGID_00000104679623941531045840000009841302435740219065_);" d="M291.91,405.43
		c-5.46,0-10.67-1.1-14.56-3.35l-118.19-68.24c-3.87-2.23-5.99-5.35-5.99-8.78c0-4.09,3.04-8.2,8.35-11.26l113.48-65.52
		c9.87-5.69,24.86-6.3,33.43-1.36l118.19,68.24c3.87,2.23,5.99,5.35,5.99,8.78c0,4.09-3.04,8.2-8.35,11.26l-113.48,65.52
		C305.39,403.84,298.47,405.43,291.91,405.43z M293.86,244.85c-6.33,0-13.02,1.54-18.23,4.55l-113.48,65.52
		c-4.9,2.83-7.71,6.53-7.71,10.15c0,2.95,1.9,5.67,5.35,7.67l118.19,68.24c8.21,4.74,22.63,4.13,32.14-1.36l113.48-65.52
		c4.9-2.83,7.71-6.53,7.71-10.15c0-2.95-1.9-5.67-5.35-7.67l-118.19-68.24C304.07,245.9,299.09,244.85,293.86,244.85z"/>
	<g>
		<g>
			<path class="st3" d="M281.64,381.42L194.31,331c-6.21-3.58-5.43-9.85,1.74-13.99l83.85-48.41c7.17-4.14,18.02-4.59,24.23-1
				l87.33,50.42c6.21,3.58,5.43,9.85-1.74,13.99l-83.85,48.41C298.7,384.56,287.85,385.01,281.64,381.42z"/>
			
				<linearGradient id="SVGID_00000101817402673175269830000001188506271246722970_" gradientUnits="userSpaceOnUse" x1="163.4066" y1="249.8658" x2="428.7273" y2="249.8658">
				<stop  offset="0" style="stop-color:#A31FA9"/>
				<stop  offset="0.0668" style="stop-color:#8B17A0"/>
				<stop  offset="0.1494" style="stop-color:#740F98"/>
				<stop  offset="0.2393" style="stop-color:#640A92"/>
				<stop  offset="0.3408" style="stop-color:#5B078F"/>
				<stop  offset="0.4785" style="stop-color:#58068E"/>
				<stop  offset="0.6264" style="stop-color:#4D22A3"/>
				<stop  offset="0.9436" style="stop-color:#3168DA"/>
				<stop  offset="1" style="stop-color:#2C75E4"/>
			</linearGradient>
			<path style="fill:url(#SVGID_00000101817402673175269830000001188506271246722970_);" d="M401.78,170.19h-45.89l-51.09-29.49
				c-6.58-3.8-18.07-3.32-25.67,1.06l-49.24,28.43h-45.87v128.55h0.01c-0.19,2.57,1.25,5.05,4.41,6.88l92.54,53.43
				c6.58,3.8,18.07,3.32,25.67-1.06l88.85-51.3c3.95-2.28,6.05-5.16,6.25-7.94h0.03V170.19z"/>
			<path class="st6" d="M195.64,170.19h-11.62v128.55h0.01c-0.13,1.82,0.57,3.6,2.11,5.13c-0.98-1.31-1.43-2.75-1.32-4.23h-0.01
				V171.09h11.74C196.25,170.78,195.95,170.48,195.64,170.19z"/>
			<path class="st10" d="M387.09,170.19c-0.08,0.26-0.17,0.52-0.26,0.77h14.13v128.55h-0.03c-0.13,1.72-0.98,3.49-2.56,5.12
				c2.09-1.84,3.23-3.89,3.38-5.89h0.03V170.19H387.09z"/>
			<polygon class="st11" points="216.43,321.77 216.43,172.67 199.76,172.67 199.76,312.15 			"/>
			<polygon class="st12" points="226.66,327.68 226.66,182.68 222.11,182.68 222.11,325.05 			"/>
			<polygon class="st13" points="234.81,332.39 234.81,184.43 230.26,184.43 230.26,329.76 			"/>
			
				<linearGradient id="SVGID_00000176002296244508311210000000686879549867596222_" gradientUnits="userSpaceOnUse" x1="490.7478" y1="767.7694" x2="615.9001" y2="659.3843" gradientTransform="matrix(0.866 0.5 -1 0.5774 525.0016 -518.4943)">
				<stop  offset="0" style="stop-color:#8D139B"/>
				<stop  offset="0.1651" style="stop-color:#851BA1"/>
				<stop  offset="0.4284" style="stop-color:#6E33B2"/>
				<stop  offset="0.7551" style="stop-color:#4958CD"/>
				<stop  offset="1" style="stop-color:#2979E4"/>
			</linearGradient>
			<path style="fill:url(#SVGID_00000176002296244508311210000000686879549867596222_);" d="M280.97,230.49l-92.54-53.43
				c-6.58-3.8-5.75-10.43,1.84-14.82l88.85-51.3c7.6-4.39,19.09-4.86,25.67-1.06l92.54,53.43c6.58,3.8,5.75,10.43-1.84,14.82
				l-88.85,51.3C299.05,233.81,287.55,234.29,280.97,230.49z"/>
			<path class="st6" d="M281.99,230.49l-92.54-53.43c-6.58-3.8-5.75-10.43,1.84-14.82l88.85-51.3c3.76-2.17,8.48-3.38,13.09-3.59
				c-4.92,0.06-10.06,1.25-14.11,3.59l-88.85,51.3c-7.6,4.39-8.42,11.02-1.84,14.82l92.54,53.43c3.32,1.92,7.89,2.74,12.58,2.53
				C289.23,233.07,285.07,232.27,281.99,230.49z"/>
			<path class="st10" d="M397.33,163.31l-92.54-53.43c-3.33-1.92-7.91-2.74-12.6-2.52c4.27-0.04,8.38,0.77,11.42,2.52l92.54,53.43
				c6.58,3.8,5.75,10.43-1.84,14.82l-88.85,51.3c-3.76,2.17-8.47,3.37-13.07,3.59c4.97-0.04,10.17-1.23,14.25-3.59l88.85-51.3
				C403.09,173.74,403.91,167.11,397.33,163.31z"/>
			<path class="st10" d="M284.02,215.08l-68.89-39.78c-4.9-2.83-4.28-7.77,1.37-11.03l66.15-38.19c5.66-3.27,14.21-3.62,19.11-0.79
				l68.89,39.78c4.9,2.83,4.28,7.77-1.37,11.03l-66.15,38.19C297.47,217.56,288.92,217.91,284.02,215.08z"/>
			<path class="st15" d="M216.5,171.7l66.15-38.19c5.66-3.27,14.21-3.62,19.11-0.79l68.89,39.78c0.64,0.37,1.18,0.78,1.64,1.21
				c2.63-2.97,2.17-6.44-1.64-8.64l-68.89-39.78c-4.9-2.83-13.45-2.47-19.11,0.79l-66.15,38.19c-4.92,2.84-6.02,6.94-3.01,9.82
				C214.24,173.24,215.24,172.43,216.5,171.7z"/>
			<g>
				<g>
					<path class="st10" d="M309.28,239.61l78.28-45.28c0.72-0.41,1.3-1.52,1.3-2.48v-1.28c0-0.95-0.58-1.39-1.3-0.98l-78.28,45.28
						c-0.72,0.41-1.3,1.52-1.3,2.48v1.28C307.99,239.59,308.57,240.03,309.28,239.61z"/>
					<path class="st15" d="M385.85,193.36c0.72-0.41,1.3-1.52,1.3-2.48v-1.04l0.42-0.24c0.72-0.41,1.3,0.03,1.3,0.98v1.28
						c0,0.95-0.58,2.06-1.3,2.48l-78.28,45.28c-0.72,0.41-1.3-0.03-1.3-0.98v-0.24L385.85,193.36z"/>
				</g>
				<g>
					<path class="st10" d="M309.28,253.39l78.28-45.28c0.72-0.41,1.3-1.52,1.3-2.48v-1.28c0-0.95-0.58-1.39-1.3-0.98l-78.28,45.28
						c-0.72,0.41-1.3,1.52-1.3,2.48v1.28C307.99,253.36,308.57,253.8,309.28,253.39z"/>
					<path class="st15" d="M385.85,207.13c0.72-0.41,1.3-1.52,1.3-2.48v-1.04l0.42-0.24c0.72-0.41,1.3,0.03,1.3,0.98v1.28
						c0,0.95-0.58,2.06-1.3,2.48l-78.28,45.28c-0.72,0.41-1.3-0.03-1.3-0.98v-0.24L385.85,207.13z"/>
				</g>
				<g>
					<path class="st10" d="M309.28,267.17l78.28-45.28c0.72-0.41,1.3-1.52,1.3-2.48v-1.28c0-0.95-0.58-1.39-1.3-0.98l-78.28,45.28
						c-0.72,0.41-1.3,1.52-1.3,2.48v1.28C307.99,267.14,308.57,267.58,309.28,267.17z"/>
					<path class="st15" d="M385.85,220.91c0.72-0.41,1.3-1.52,1.3-2.48v-1.04l0.42-0.24c0.72-0.41,1.3,0.03,1.3,0.98v1.28
						c0,0.95-0.58,2.06-1.3,2.48l-78.28,45.28c-0.72,0.41-1.3-0.03-1.3-0.98v-0.24L385.85,220.91z"/>
				</g>
				<g>
					<path class="st10" d="M309.28,280.94l78.28-45.28c0.72-0.41,1.3-1.52,1.3-2.48v-1.28c0-0.95-0.58-1.39-1.3-0.98l-78.28,45.28
						c-0.72,0.41-1.3,1.52-1.3,2.48v1.28C307.99,280.92,308.57,281.36,309.28,280.94z"/>
					<path class="st15" d="M385.85,234.69c0.72-0.41,1.3-1.52,1.3-2.48v-1.04l0.42-0.24c0.72-0.41,1.3,0.03,1.3,0.98v1.28
						c0,0.95-0.58,2.06-1.3,2.48l-78.28,45.28c-0.72,0.41-1.3-0.03-1.3-0.98v-0.24L385.85,234.69z"/>
				</g>
				<g>
					<path class="st10" d="M309.28,294.72l78.28-45.28c0.72-0.41,1.3-1.52,1.3-2.48v-1.28c0-0.95-0.58-1.39-1.3-0.98l-78.28,45.28
						c-0.72,0.41-1.3,1.52-1.3,2.48v1.28C307.99,294.69,308.57,295.13,309.28,294.72z"/>
					<path class="st15" d="M385.85,248.46c0.72-0.41,1.3-1.52,1.3-2.48v-1.04l0.42-0.24c0.72-0.41,1.3,0.03,1.3,0.98v1.28
						c0,0.95-0.58,2.06-1.3,2.48l-78.28,45.28c-0.72,0.41-1.3-0.03-1.3-0.98v-0.24L385.85,248.46z"/>
				</g>
				<g>
					<path class="st10" d="M309.28,308.49l78.28-45.28c0.72-0.41,1.3-1.52,1.3-2.48v-1.28c0-0.95-0.58-1.39-1.3-0.98l-78.28,45.28
						c-0.72,0.41-1.3,1.52-1.3,2.48v1.28C307.99,308.47,308.57,308.91,309.28,308.49z"/>
					<path class="st15" d="M385.85,262.24c0.72-0.41,1.3-1.52,1.3-2.48v-1.04l0.42-0.24c0.72-0.41,1.3,0.03,1.3,0.98v1.28
						c0,0.95-0.58,2.06-1.3,2.48l-78.28,45.28c-0.72,0.41-1.3-0.03-1.3-0.98v-0.24L385.85,262.24z"/>
				</g>
				<g>
					<path class="st10" d="M309.28,322.27l78.28-45.28c0.72-0.41,1.3-1.52,1.3-2.48v-1.28c0-0.95-0.58-1.39-1.3-0.98l-78.28,45.28
						c-0.72,0.41-1.3,1.52-1.3,2.48v1.28C307.99,322.25,308.57,322.68,309.28,322.27z"/>
					<path class="st15" d="M385.85,276.02c0.72-0.41,1.3-1.52,1.3-2.48v-1.04l0.42-0.24c0.72-0.41,1.3,0.03,1.3,0.98v1.28
						c0,0.95-0.58,2.06-1.3,2.48l-78.28,45.28c-0.72,0.41-1.3-0.03-1.3-0.98v-0.24L385.85,276.02z"/>
				</g>
				<g>
					<path class="st10" d="M309.28,336.05l78.28-45.28c0.72-0.41,1.3-1.52,1.3-2.48v-1.28c0-0.95-0.58-1.39-1.3-0.98l-78.28,45.28
						c-0.72,0.41-1.3,1.52-1.3,2.48v1.28C307.99,336.02,308.57,336.46,309.28,336.05z"/>
					<path class="st15" d="M385.85,289.79c0.72-0.41,1.3-1.52,1.3-2.48v-1.04l0.42-0.24c0.72-0.41,1.3,0.03,1.3,0.98v1.28
						c0,0.95-0.58,2.06-1.3,2.48l-78.28,45.28c-0.72,0.41-1.3-0.03-1.3-0.98v-0.24L385.85,289.79z"/>
				</g>
				<g>
					<path class="st10" d="M309.28,349.82l78.28-45.28c0.72-0.41,1.3-1.52,1.3-2.48v-1.28c0-0.95-0.58-1.39-1.3-0.98l-78.28,45.28
						c-0.72,0.41-1.3,1.52-1.3,2.48v1.28C307.99,349.8,308.57,350.24,309.28,349.82z"/>
					<path class="st15" d="M385.85,303.57c0.72-0.41,1.3-1.52,1.3-2.48v-1.04l0.42-0.24c0.72-0.41,1.3,0.03,1.3,0.98v1.28
						c0,0.95-0.58,2.06-1.3,2.48l-78.28,45.28c-0.72,0.41-1.3-0.03-1.3-0.98v-0.24L385.85,303.57z"/>
				</g>
			</g>
			<g>
				<g>
					<circle class="st10" cx="292.89" cy="241.85" r="2.1"/>
					<path class="st15" d="M292.89,243.17c-1.03,0-1.88-0.74-2.06-1.71c-0.02,0.13-0.04,0.26-0.04,0.39c0,1.16,0.94,2.1,2.1,2.1
						s2.1-0.94,2.1-2.1c0-0.13-0.02-0.27-0.04-0.39C294.76,242.43,293.91,243.17,292.89,243.17z"/>
				</g>
				<g>
					<circle class="st10" cx="292.89" cy="255.63" r="2.1"/>
					<path class="st15" d="M292.89,256.94c-1.03,0-1.88-0.74-2.06-1.71c-0.02,0.13-0.04,0.26-0.04,0.39c0,1.16,0.94,2.1,2.1,2.1
						s2.1-0.94,2.1-2.1c0-0.14-0.02-0.27-0.04-0.39C294.76,256.21,293.91,256.94,292.89,256.94z"/>
				</g>
				<g>
					<circle class="st10" cx="292.89" cy="269.41" r="2.1"/>
					<path class="st15" d="M292.89,270.72c-1.03,0-1.88-0.74-2.06-1.71c-0.02,0.13-0.04,0.26-0.04,0.39c0,1.16,0.94,2.1,2.1,2.1
						s2.1-0.94,2.1-2.1c0-0.14-0.02-0.27-0.04-0.39C294.76,269.98,293.91,270.72,292.89,270.72z"/>
				</g>
				<g>
					<circle class="st10" cx="292.89" cy="283.18" r="2.1"/>
					<path class="st15" d="M292.89,284.5c-1.03,0-1.88-0.74-2.06-1.71c-0.02,0.13-0.04,0.26-0.04,0.39c0,1.16,0.94,2.1,2.1,2.1
						s2.1-0.94,2.1-2.1c0-0.13-0.02-0.27-0.04-0.39C294.76,283.76,293.91,284.5,292.89,284.5z"/>
				</g>
				<g>
					<circle class="st10" cx="292.89" cy="296.96" r="2.1"/>
					<path class="st15" d="M292.89,298.27c-1.03,0-1.88-0.74-2.06-1.71c-0.02,0.13-0.04,0.26-0.04,0.39c0,1.16,0.94,2.1,2.1,2.1
						s2.1-0.94,2.1-2.1c0-0.13-0.02-0.27-0.04-0.39C294.76,297.54,293.91,298.27,292.89,298.27z"/>
				</g>
				<g>
					<circle class="st10" cx="292.89" cy="310.74" r="2.1"/>
					<path class="st15" d="M292.89,312.05c-1.03,0-1.88-0.74-2.06-1.71c-0.02,0.13-0.04,0.26-0.04,0.39c0,1.16,0.94,2.1,2.1,2.1
						s2.1-0.94,2.1-2.1c0-0.14-0.02-0.27-0.04-0.39C294.76,311.31,293.91,312.05,292.89,312.05z"/>
				</g>
				<g>
					<circle class="st10" cx="292.89" cy="324.51" r="2.1"/>
					<path class="st15" d="M292.89,325.82c-1.03,0-1.88-0.74-2.06-1.71c-0.02,0.13-0.04,0.26-0.04,0.39c0,1.16,0.94,2.1,2.1,2.1
						s2.1-0.94,2.1-2.1c0-0.13-0.02-0.27-0.04-0.39C294.76,325.09,293.91,325.82,292.89,325.82z"/>
				</g>
				<g>
					<circle class="st10" cx="292.89" cy="338.29" r="2.1"/>
					<path class="st15" d="M292.89,339.6c-1.03,0-1.88-0.74-2.06-1.71c-0.02,0.13-0.04,0.26-0.04,0.39c0,1.16,0.94,2.1,2.1,2.1
						s2.1-0.94,2.1-2.1c0-0.13-0.02-0.27-0.04-0.39C294.76,338.87,293.91,339.6,292.89,339.6z"/>
				</g>
				<g>
					<circle class="st10" cx="292.89" cy="352.06" r="2.1"/>
					<path class="st15" d="M292.89,353.38c-1.03,0-1.88-0.74-2.06-1.71c-0.02,0.13-0.04,0.26-0.04,0.39c0,1.16,0.94,2.1,2.1,2.1
						s2.1-0.94,2.1-2.1c0-0.14-0.02-0.27-0.04-0.39C294.76,352.64,293.91,353.38,292.89,353.38z"/>
				</g>
			</g>
		</g>
		<g>
			<g>
				<path class="st16" d="M262.85,331.92c-0.42,0-0.87-0.13-1.32-0.4l-3.13-1.81c-1.7-0.98-3.09-3.62-3.09-5.88v-84.55
					c0-1.25,0.43-2.22,1.17-2.65c0.63-0.37,1.43-0.31,2.24,0.15l3.13,1.81c1.7,0.98,3.09,3.62,3.09,5.88v84.55
					c0,1.25-0.43,2.22-1.17,2.65C263.48,331.84,263.17,331.92,262.85,331.92z M257.38,237.04c-0.22,0-0.42,0.05-0.59,0.15
					c-0.54,0.31-0.85,1.08-0.85,2.09v84.55c0,2.05,1.24,4.44,2.77,5.32l3.13,1.81c0.6,0.35,1.17,0.4,1.6,0.15
					c0.54-0.31,0.85-1.08,0.85-2.09v-84.55c0-2.05-1.24-4.44-2.77-5.32l-3.13-1.81C258.03,237.14,257.69,237.04,257.38,237.04z"/>
			</g>
		</g>
		<path class="st16" d="M210.7,302.26c-0.42,0-0.87-0.13-1.33-0.4l-3.13-1.81c-1.7-0.98-3.09-3.62-3.09-5.88v-84.55
			c0-1.25,0.43-2.22,1.17-2.65c0.63-0.37,1.43-0.31,2.24,0.15l3.13,1.81c1.7,0.98,3.09,3.62,3.09,5.88v84.55
			c0,1.25-0.43,2.22-1.17,2.65C211.33,302.19,211.03,302.26,210.7,302.26z M206.56,299.51l3.13,1.81c0.6,0.35,1.17,0.4,1.6,0.16
			c0.54-0.31,0.85-1.08,0.85-2.09v-84.55c0-2.05-1.24-4.44-2.77-5.32l-3.13-1.81c-0.6-0.35-1.17-0.4-1.6-0.15
			c-0.54,0.31-0.85,1.08-0.85,2.09v84.55C203.79,296.24,205.03,298.63,206.56,299.51L206.56,299.51z"/>
		<path class="st16" d="M236.77,317.09c-0.42,0-0.87-0.13-1.32-0.4l-3.13-1.81c-1.7-0.98-3.09-3.62-3.09-5.88v-84.55
			c0-1.25,0.43-2.22,1.17-2.65c0.63-0.37,1.43-0.31,2.24,0.15l3.13,1.81c1.7,0.98,3.09,3.62,3.09,5.88v84.55
			c0,1.25-0.43,2.22-1.17,2.65C237.41,317.01,237.1,317.09,236.77,317.09z M231.31,222.21c-0.22,0-0.42,0.05-0.59,0.15
			c-0.54,0.31-0.85,1.08-0.85,2.09v84.55c0,2.05,1.24,4.44,2.77,5.32l3.13,1.81c0.6,0.35,1.17,0.4,1.6,0.15
			c0.54-0.31,0.85-1.08,0.85-2.09v-84.55c0-2.05-1.24-4.44-2.77-5.32l-3.13-1.81C231.96,222.31,231.62,222.21,231.31,222.21z"/>
	</g>
	<polygon class="st17" points="375.79,150.76 372.83,166.86 388.19,158.05 	"/>
	<g>
		
			<linearGradient id="SVGID_00000065048923060355286090000014190818520906373266_" gradientUnits="userSpaceOnUse" x1="198.619" y1="89.0214" x2="379.269" y2="130.5464">
			<stop  offset="0" style="stop-color:#8D139B"/>
			<stop  offset="0.1651" style="stop-color:#851BA1"/>
			<stop  offset="0.4284" style="stop-color:#6E33B2"/>
			<stop  offset="0.7551" style="stop-color:#4958CD"/>
			<stop  offset="1" style="stop-color:#2979E4"/>
		</linearGradient>
		<path style="fill:url(#SVGID_00000065048923060355286090000014190818520906373266_);" d="M295.09,72.96l-3.58,2.08l3.58,4.08v30.3
			c0,6.62,4.02,14.3,8.98,17.17l65.94,38.07c0.07,0.04,0.14,0.07,0.21,0.1l2.13,2.43l3.35-1.95c0.05-0.02,0.09-0.05,0.14-0.08
			l0.32-0.18l-0.01-0.01c1.75-1.17,2.86-3.64,2.86-7.09v-36.46L295.09,72.96z"/>
		<path class="st10" d="M291.51,75.04l83.91,48.44v36.46c0,6.62-4.02,9.66-8.98,6.79l-65.94-38.07c-4.96-2.86-8.98-10.55-8.98-17.17
			V75.04z"/>
	</g>
	<polygon class="st19" points="289.53,216.82 273.47,226.16 201.38,184.53 216.31,175.96 	"/>
	<g>
		
			<linearGradient id="SVGID_00000126283087817484844380000003662665366928431545_" gradientUnits="userSpaceOnUse" x1="116.9002" y1="138.1951" x2="297.5503" y2="179.7202">
			<stop  offset="0" style="stop-color:#8D139B"/>
			<stop  offset="0.1651" style="stop-color:#851BA1"/>
			<stop  offset="0.4284" style="stop-color:#6E33B2"/>
			<stop  offset="0.7551" style="stop-color:#4958CD"/>
			<stop  offset="1" style="stop-color:#2979E4"/>
		</linearGradient>
		<path style="fill:url(#SVGID_00000126283087817484844380000003662665366928431545_);" d="M213.37,122.13l-3.58,2.08l3.58,4.08
			v30.3c0,6.62,4.02,14.3,8.98,17.17l65.94,38.07c0.07,0.04,0.14,0.07,0.21,0.1l2.13,2.43l3.35-1.95c0.05-0.02,0.09-0.05,0.14-0.08
			l0.32-0.18l-0.01-0.01c1.75-1.17,2.86-3.64,2.86-7.09v-36.46L213.37,122.13z"/>
		
			<linearGradient id="SVGID_00000068643831659466673400000009963642813681468311_" gradientUnits="userSpaceOnUse" x1="2848.4702" y1="-560.3388" x2="2656.4265" y2="-476.4849" gradientTransform="matrix(-0.866 -0.5 0 -1.1547 2662.7527 948.0714)">
			<stop  offset="0" style="stop-color:#8D139B"/>
			<stop  offset="0.1651" style="stop-color:#851BA1"/>
			<stop  offset="0.4284" style="stop-color:#6E33B2"/>
			<stop  offset="0.7551" style="stop-color:#4958CD"/>
			<stop  offset="1" style="stop-color:#2979E4"/>
		</linearGradient>
		<path style="fill:url(#SVGID_00000068643831659466673400000009963642813681468311_);" d="M209.79,124.21l83.91,48.44v36.46
			c0,6.62-4.02,9.66-8.98,6.79l-65.94-38.07c-4.96-2.86-8.98-10.55-8.98-17.17V124.21z"/>
	</g>
	<path class="st19" d="M388.44,158.2l-12.65-7.43L388.44,158.2z"/>
</g>
<circle class="st6" cx="73.05" cy="197.26" r="1.89"/>
</svg>
