<?xml version="1.0" encoding="UTF-8"?><svg xmlns="http://www.w3.org/2000/svg" xmlns:xlink="http://www.w3.org/1999/xlink" viewBox="0 0 1581.32 1459.74"><defs><style>.ab{fill:url(#p);}.ac{fill:url(#k);}.ad{fill:#fccc6b;}.ae{fill:#312a91;}.af{fill:#42e8e0;}.ag{fill:#0a0e2d;}.ah{fill:#6ee8fc;}.ai,.aj,.ak,.al{fill:#5cfff3;}.aj{opacity:.2;}.am{fill:url(#f);}.am,.an,.ao,.ap,.aq,.ar,.as,.at,.au,.av,.aw,.ax,.ay,.b`,.ba,.bb{mix-blend-mode:lighten;}.an{fill:url(#e);}.ao{fill:url(#g);}.ap{fill:url(#i);}.aq{fill:url(#h);}.ar{fill:url(#w);}.as{fill:url(#x);}.at{fill:url(#y);}.au{fill:url(#a`);}.av{fill:url(#aa);}.bc{isolation:isolate;}.aw{fill:url(#b);}.aw,.ax,.ay,.b`,.ba,.bb{opacity:.3;}.ax{fill:url(#c);}.ay{fill:url(#d);}.b`{fill:url(#u);}.ba{fill:url(#v);}.bb{fill:url(#t);}.bd{fill:url(#q);}.bd,.be,.bf,.bg,.bh,.bi,.bj,.bk,.al,.bl{opacity:.5;}.be{fill:url(#s);}.bf{fill:url(#r);}.bg{fill:url(#o);}.bh{fill:url(#j);}.bi{fill:url(#l);}.bj{fill:url(#n);}.bk{fill:url(#m);}.ak{opacity:.6;}.bl{fill:#0b0244;}</style><radialGradient id="b" cx="-1203.59" cy="381.33" fx="-1203.59" fy="381.33" r="80.51" gradientTransform="translate(1538.24 605.6) rotate(30) scale(1 .87) skewX(-26.56)" gradientUnits="userSpaceOnUse"><stop offset="0" stop-color="#42e8e0"/><stop offset=".01" stop-color="#3fded8"/><stop offset=".09" stop-color="#34afb3"/><stop offset=".17" stop-color="#2a8593"/><stop offset=".26" stop-color="#216178"/><stop offset=".35" stop-color="#1a4561"/><stop offset=".44" stop-color="#152e50"/><stop offset=".54" stop-color="#111f44"/><stop offset=".66" stop-color="#0f153d"/><stop offset=".82" stop-color="#0f133b"/></radialGradient><radialGradient id="c" cx="-1038.54" cy="423.4" fx="-1038.54" fy="423.4" r="80.51" gradientTransform="translate(1538.24 605.6) rotate(30) scale(1 .87) skewX(-26.56)" gradientUnits="userSpaceOnUse"><stop offset="0" stop-color="#42e8e0"/><stop offset=".01" stop-color="#3fded8"/><stop offset=".09" stop-color="#34afb3"/><stop offset=".17" stop-color="#2a8593"/><stop offset=".26" stop-color="#216178"/><stop offset=".35" stop-color="#1a4561"/><stop offset=".44" stop-color="#152e50"/><stop offset=".54" stop-color="#111f44"/><stop offset=".66" stop-color="#0f153d"/><stop offset=".82" stop-color="#0f133b"/></radialGradient><radialGradient id="d" cx="-1203.78" cy="484.93" fx="-1203.78" fy="484.93" r="61.9" xlink:href="#c"/><radialGradient id="e" cx="166.57" cy="196.52" fx="166.57" fy="196.52" r="9" gradientTransform="translate(319.56 -10.75) rotate(76.72)" gradientUnits="userSpaceOnUse"><stop offset="0" stop-color="#42e8e0"/><stop offset=".02" stop-color="#3fd8d6"/><stop offset=".1" stop-color="#35a9b9"/><stop offset=".18" stop-color="#2d7fa0"/><stop offset=".26" stop-color="#275b8a"/><stop offset=".35" stop-color="#213f79"/><stop offset=".44" stop-color="#1d286b"/><stop offset=".54" stop-color="#1a1962"/><stop offset=".66" stop-color="#180f5c"/><stop offset=".82" stop-color="#180d5b"/></radialGradient><radialGradient id="f" cx="75.81" cy="249.02" fx="75.81" fy="249.02" r="9" gradientTransform="matrix(1, 0, 0, 1, 0, 0)" xlink:href="#e"/><radialGradient id="g" cx="272.81" cy="297.86" fx="272.81" fy="297.86" r="9" gradientTransform="matrix(1, 0, 0, 1, 0, 0)" xlink:href="#b"/><radialGradient id="h" cx="289.5" cy="288.02" fx="289.5" fy="288.02" r="9" gradientTransform="matrix(1, 0, 0, 1, 0, 0)" xlink:href="#b"/><radialGradient id="i" cx="306.19" cy="278.34" fx="306.19" fy="278.34" r="9" gradientTransform="matrix(1, 0, 0, 1, 0, 0)" xlink:href="#b"/><linearGradient id="j" x1="35.03" y1="217.42" x2="258.86" y2="217.42" gradientTransform="matrix(1, 0, 0, 1, 0, 0)" gradientUnits="userSpaceOnUse"><stop offset="0" stop-color="#42e8e0"/><stop offset=".1" stop-color="#3cc9cd"/><stop offset=".34" stop-color="#2f87a5"/><stop offset=".56" stop-color="#255285"/><stop offset=".75" stop-color="#1e2c6e"/><stop offset=".91" stop-color="#191560"/><stop offset="1" stop-color="#180d5b"/></linearGradient><linearGradient id="k" x1="196.42" y1="217.41" x2="308.33" y2="217.41" gradientTransform="matrix(1, 0, 0, 1, 0, 0)" gradientUnits="userSpaceOnUse"><stop offset="0" stop-color="#2b237c"/><stop offset="1" stop-color="#180d5b"/></linearGradient><linearGradient id="l" x1="84.5" y1="192.69" x2="308.35" y2="192.69" xlink:href="#j"/><linearGradient id="m" x1="84.5" y1="192.69" x2="198.75" y2="192.69" xlink:href="#j"/><linearGradient id="n" x1="114.95" y1="257.82" x2="302.31" y2="135.36" xlink:href="#j"/><linearGradient id="o" y1="149.76" y2="149.76" xlink:href="#j"/><linearGradient id="p" y1="149.75" y2="149.75" xlink:href="#k"/><linearGradient id="q" x1="84.5" y1="125.03" x2="308.35" y2="125.03" xlink:href="#j"/><linearGradient id="r" x1="84.5" y1="125.04" x2="198.75" y2="125.04" xlink:href="#j"/><linearGradient id="s" x1="114.95" y1="190.17" x2="302.31" y2="67.7" xlink:href="#j"/><radialGradient id="t" cx="-1341.14" cy="243.78" fx="-1341.14" fy="243.78" r="80.51" xlink:href="#c"/><radialGradient id="u" cx="-1176.09" cy="285.85" fx="-1176.09" fy="285.85" r="80.51" xlink:href="#c"/><radialGradient id="v" cx="-1341.32" cy="347.39" fx="-1341.32" fy="347.39" r="61.9" xlink:href="#c"/><radialGradient id="w" cx="166.57" cy="58.97" fx="166.57" fy="58.97" r="9" gradientTransform="matrix(1, 0, 0, 1, 0, 0)" xlink:href="#b"/><radialGradient id="x" cx="75.81" cy="111.48" fx="75.81" fy="111.48" r="9" gradientTransform="matrix(1, 0, 0, 1, 0, 0)" xlink:href="#b"/><radialGradient id="y" cx="272.81" cy="160.31" fx="272.81" fy="160.31" r="9" gradientTransform="translate(82.11 -92.2) rotate(22.5)" xlink:href="#b"/><radialGradient id="a`" cx="289.5" cy="150.48" fx="289.5" fy="150.48" r="9" gradientTransform="matrix(1, 0, 0, 1, 0, 0)" xlink:href="#b"/><radialGradient id="aa" cx="306.19" cy="140.79" fx="306.19" fy="140.79" r="9" gradientTransform="matrix(1, 0, 0, 1, 0, 0)" xlink:href="#b"/></defs><g class="bc"><g id="a"><g><g><path class="ah" d="M195.4,338.46c-3.83,0-7.48-.77-10.21-2.35l-119.26-68.86c-2.67-1.54-4.14-3.68-4.14-6.03,0-2.82,2.12-5.66,5.81-7.79l115.92-66.92c6.93-4,17.47-4.44,23.48-.96l119.26,68.86c2.67,1.54,4.14,3.68,4.14,6.03,0,2.82-2.12,5.66-5.81,7.79l-115.92,66.92c-3.79,2.19-8.66,3.31-13.27,3.31Zm1.39-154.81c-4.53,0-9.32,1.1-13.05,3.26l-115.92,66.92c-3.55,2.05-5.58,4.75-5.58,7.4,0,2.18,1.39,4.18,3.91,5.64l119.26,68.86c5.89,3.4,16.22,2.97,23.04-.96l115.92-66.92c3.55-2.05,5.58-4.75,5.58-7.4,0-2.18-1.39-4.18-3.91-5.64l-119.26-68.86c-2.67-1.54-6.24-2.29-9.99-2.29Z"/><ellipse class="aw" cx="165.7" cy="194.47" rx="98.6" ry="56.93"/><ellipse class="ax" cx="272.2" cy="298.03" rx="98.6" ry="56.93"/><ellipse class="ay" cx="75.81" cy="246.18" rx="75.81" ry="43.77"/><g><circle class="an" cx="166.57" cy="196.52" r="9" transform="translate(-62.96 313.48) rotate(-76.72)"/><path class="ah" d="M169.14,196.52c0,1.42-1.15,2.57-2.57,2.57s-2.57-1.15-2.57-2.57,1.15-2.57,2.57-2.57,2.57,1.15,2.57,2.57Z"/></g><g><circle class="am" cx="75.81" cy="249.02" r="9"/><path class="ah" d="M78.38,249.02c0,1.42-1.15,2.57-2.57,2.57s-2.57-1.15-2.57-2.57,1.15-2.57,2.57-2.57,2.57,1.15,2.57,2.57Z"/></g><g><circle class="ao" cx="272.81" cy="297.86" r="9"/><circle class="ah" cx="272.81" cy="297.86" r="2.57"/></g><g><circle class="aq" cx="289.5" cy="288.02" r="9"/><path class="ah" d="M292.06,288.02c0,1.42-1.15,2.57-2.57,2.57s-2.57-1.15-2.57-2.57,1.15-2.57,2.57-2.57,2.57,1.15,2.57,2.57Z"/></g><g><circle class="ap" cx="306.19" cy="278.34" r="9"/><path class="ah" d="M308.75,278.34c0,1.42-1.15,2.57-2.57,2.57s-2.57-1.15-2.57-2.57,1.15-2.57,2.57-2.57,2.57,1.15,2.57,2.57Z"/></g></g><g><g><path class="ag" d="M184.73,316.3l-85-49.07c-6.46-3.73-5.65-10.24,1.81-14.55l81.38-46.98c7.46-4.31,18.74-4.77,25.2-1.04l85,49.07c6.46,3.73,5.65,10.24-1.81,14.55l-81.38,46.98c-7.46,4.31-18.74,4.77-25.2,1.04Z"/><path class="ae" d="M308.31,210.26v-17.57h-45.34l-53.6-30.95c-7.15-4.13-19.65-3.61-27.91,1.16l-51.6,29.79h-45.37v18.57h.04c-.2,2.8,1.36,5.49,4.79,7.48l94.14,54.35c7.15,4.13,19.65,3.61,27.91-1.16l90.13-52.04c4.76-2.75,7.06-6.31,6.8-9.63Z"/><path class="bh" d="M308.31,210.26v-17.57h-45.34l-53.6-30.95c-7.15-4.13-19.65-3.61-27.91,1.16l-51.6,29.79h-45.37v18.57h.04c-.2,2.8,1.36,5.49,4.79,7.48l94.14,54.35c7.15,4.13,19.65,3.61,27.91-1.16l90.13-52.04c4.76-2.75,7.06-6.31,6.8-9.63Z"/><path class="ac" d="M209.38,161.74c-3.44-1.99-8.11-2.89-12.96-2.77v116.88c5.24-.13,10.67-1.45,14.97-3.92l90.13-52.04c4.76-2.75,7.06-6.31,6.8-9.63v-17.57h-45.34l-53.6-30.95Z"/><path class="ae" d="M183.48,254.52l-94.14-54.35c-7.15-4.13-6.26-11.34,2-16.11l90.13-52.04c8.26-4.77,20.76-5.29,27.91-1.16l94.14,54.35c7.15,4.13,6.26,11.34-2,16.11l-90.13,52.04c-8.26,4.77-20.76,5.29-27.91,1.16Z"/><path class="bi" d="M183.48,254.52l-94.14-54.35c-7.15-4.13-6.26-11.34,2-16.11l90.13-52.04c8.26-4.77,20.76-5.29,27.91-1.16l94.14,54.35c7.15,4.13,6.26,11.34-2,16.11l-90.13,52.04c-8.26,4.77-20.76,5.29-27.91,1.16Z"/><path class="ai" d="M185.99,242.51l-75.85-43.79c-5.76-3.33-5.04-9.14,1.61-12.98l72.62-41.93c6.66-3.84,16.72-4.26,22.49-.93l75.85,43.79c5.76,3.33,5.04,9.14-1.61,12.98l-72.62,41.93c-6.66,3.84-16.72,4.26-22.49,.93Z"/><path class="af" d="M111.75,191.41l72.62-41.93c6.66-3.84,16.72-4.26,22.49-.93l75.85,43.79c1.42,.82,2.45,1.8,3.09,2.85,1.67-3.07,.71-6.34-3.09-8.53l-75.85-43.79c-5.76-3.33-15.83-2.91-22.49,.93l-72.62,41.93c-5.01,2.89-6.66,6.9-4.7,10.13,.87-1.59,2.43-3.14,4.7-4.45Z"/><path class="bk" d="M186.64,254.52l-94.14-54.35c-7.15-4.13-8.86-10.2,2-16.11l90.13-52.04c4.06-2.35,9.15-3.66,14.12-3.9-5.91-.27-12.35,1.05-17.28,3.9l-90.13,52.04c-8.26,4.77-9.16,11.98-2,16.11l94.14,54.35c3.64,2.1,8.65,2.99,13.79,2.74-3.99-.18-7.75-1.08-10.63-2.74Z"/><path class="bj" d="M301.52,209.17l-90.13,52.04c-8.26,4.77-20.76,5.29-27.91,1.16l-94.14-54.35c-3.44-1.98-5-4.68-4.79-7.48h-.04v3.85h.04c-.2,2.8,1.36,5.49,4.79,7.48l94.14,54.35c7.15,4.13,19.65,3.61,27.91-1.16l90.13-52.04c4.76-2.75,7.06-6.31,6.8-9.63v-3.85c.27,3.32-2.03,6.88-6.8,9.63Z"/><g><path class="ad" d="M285.17,204.05c1.03,.59,1.03,1.56,0,2.15-1.03,.59-2.69,.59-3.72,0-1.03-.59-1.03-1.55,0-2.15s2.69-.59,3.72,0Z"/><path class="ad" d="M290.96,200.7c1.03,.59,1.03,1.55,0,2.15s-2.69,.59-3.72,0c-1.03-.59-1.03-1.56,0-2.15,1.03-.59,2.69-.59,3.72,0Z"/><path class="ad" d="M296.76,197.36c1.03,.59,1.03,1.56,0,2.15-1.03,.59-2.69,.59-3.72,0-1.03-.59-1.03-1.55,0-2.15s2.69-.59,3.72,0Z"/></g></g><g><path class="bl" d="M188.24,231.9l-59.5-34.35c-4.52-2.61-3.95-7.17,1.27-10.18l56.96-32.89c5.22-3.01,13.12-3.34,17.64-.73l59.5,34.35c4.52,2.61,3.95,7.17-1.27,10.18l-56.96,32.89c-5.22,3.01-13.12,3.34-17.64,.73Z"/><path class="al" d="M308.31,192.69c.02-.33,.03-.67,0-.99v-49.09l-77.99,.35-20.95-12.09c-7.15-4.13-19.65-3.61-27.91,1.16l-19.47,11.24-77.49,.34v49.09h.04c-.2,2.8,1.36,5.49,4.79,7.48l94.14,54.35c7.15,4.13,19.65,3.61,27.91-1.16l90.13-52.04c4.29-2.48,6.58-5.61,6.8-8.64h0Z"/><path class="ae" d="M308.31,142.61v-17.57h-45.34l-53.6-30.95c-7.15-4.13-19.65-3.61-27.91,1.16l-51.6,29.79h-45.37v18.57h.04c-.2,2.8,1.36,5.49,4.79,7.48l94.14,54.35c7.15,4.13,19.65,3.61,27.91-1.16l90.13-52.04c4.76-2.75,7.06-6.31,6.8-9.63Z"/><path class="bg" d="M308.31,142.61v-17.57h-45.34l-53.6-30.95c-7.15-4.13-19.65-3.61-27.91,1.16l-51.6,29.79h-45.37v18.57h.04c-.2,2.8,1.36,5.49,4.79,7.48l94.14,54.35c7.15,4.13,19.65,3.61,27.91-1.16l90.13-52.04c4.76-2.75,7.06-6.31,6.8-9.63Z"/><path class="ab" d="M209.38,94.09c-3.44-1.99-8.11-2.89-12.96-2.77v116.88c5.24-.13,10.67-1.44,14.97-3.92l90.13-52.04c4.76-2.75,7.06-6.31,6.8-9.63v-17.57h-45.34l-53.6-30.95Z"/><path class="ae" d="M183.48,186.86l-94.14-54.35c-7.15-4.13-6.26-11.34,2-16.11l90.13-52.04c8.26-4.77,20.76-5.29,27.91-1.16l94.14,54.35c7.15,4.13,6.26,11.34-2,16.11l-90.13,52.04c-8.26,4.77-20.76,5.29-27.91,1.16Z"/><path class="bd" d="M183.48,186.86l-94.14-54.35c-7.15-4.13-6.26-11.34,2-16.11l90.13-52.04c8.26-4.77,20.76-5.29,27.91-1.16l94.14,54.35c7.15,4.13,6.26,11.34-2,16.11l-90.13,52.04c-8.26,4.77-20.76,5.29-27.91,1.16Z"/><path class="bf" d="M186.64,186.86l-94.14-54.35c-7.15-4.13-8.86-10.2,2-16.11l90.13-52.04c4.06-2.35,9.15-3.66,14.12-3.9-5.91-.27-12.35,1.05-17.28,3.9l-90.13,52.04c-8.26,4.77-9.16,11.98-2,16.11l94.14,54.35c3.64,2.1,8.65,2.99,13.79,2.74-3.99-.18-7.75-1.08-10.63-2.74Z"/><path class="be" d="M301.52,141.52l-90.13,52.04c-8.26,4.77-20.76,5.29-27.91,1.16l-94.14-54.35c-3.44-1.98-5-4.68-4.79-7.48h-.04v3.85h.04c-.2,2.8,1.36,5.49,4.79,7.48l94.14,54.35c7.15,4.13,19.65,3.61,27.91-1.16l90.13-52.04c4.76-2.75,7.06-6.31,6.8-9.63v-3.85c.27,3.32-2.03,6.88-6.8,9.63Z"/></g><g><path class="aj" d="M188.94,128.97c1.96,1.13,1.96,2.96,0,4.09-1.96,1.13-5.12,1.13-7.08,0s-1.96-2.96,0-4.09c1.95-1.13,5.12-1.13,7.08,0Z"/><path class="ak" d="M199.97,122.6c1.96,1.13,1.96,2.96,0,4.09-1.96,1.13-5.12,1.13-7.08,0s-1.96-2.96,0-4.09c1.95-1.13,5.12-1.13,7.08,0Z"/><path class="ai" d="M210.99,116.23c1.96,1.13,1.96,2.96,0,4.09s-5.12,1.13-7.08,0-1.96-2.96,0-4.09c1.96-1.13,5.12-1.13,7.08,0Z"/></g><path class="bl" d="M195.81,173.51c-3.49,0-6.83-.71-9.31-2.14l-69.61-40.19c-2.53-1.46-3.93-3.52-3.93-5.79,0-2.69,1.97-5.37,5.41-7.35l66.64-38.48c6.29-3.63,15.87-4.02,21.34-.86l69.61,40.19c2.53,1.46,3.93,3.52,3.93,5.79,0,2.69-1.97,5.37-5.41,7.35l-66.64,38.48c-3.43,1.98-7.84,3-12.03,3Zm-8.61-3.37c5.08,2.94,14.02,2.55,19.93-.86l66.64-38.48c2.98-1.72,4.7-3.96,4.7-6.12,0-1.74-1.14-3.36-3.21-4.56l-69.61-40.19c-5.08-2.94-14.02-2.55-19.93,.86l-66.64,38.48c-2.99,1.72-4.7,3.95-4.7,6.12,0,1.74,1.14,3.36,3.22,4.56l69.61,40.19Z"/></g><g><path class="ah" d="M195.4,200.91c-3.83,0-7.48-.77-10.21-2.35l-119.26-68.86c-2.67-1.54-4.14-3.68-4.14-6.03,0-2.82,2.12-5.66,5.81-7.79L183.51,48.97c6.93-4,17.47-4.44,23.48-.96l119.26,68.86c2.67,1.54,4.14,3.68,4.14,6.03,0,2.82-2.12,5.66-5.81,7.79l-115.92,66.92c-3.79,2.19-8.66,3.31-13.27,3.31Zm1.39-154.81c-4.53,0-9.32,1.1-13.05,3.26L67.82,116.28c-3.55,2.05-5.58,4.75-5.58,7.4,0,2.18,1.39,4.18,3.91,5.64l119.26,68.86c5.89,3.4,16.23,2.97,23.04-.96l115.92-66.92c3.55-2.05,5.58-4.75,5.58-7.4,0-2.18-1.39-4.18-3.91-5.64L206.78,48.39c-2.67-1.54-6.24-2.29-9.99-2.29Z"/><ellipse class="bb" cx="165.7" cy="56.93" rx="98.6" ry="56.93"/><ellipse class="b`" cx="272.2" cy="160.49" rx="98.6" ry="56.93"/><ellipse class="ba" cx="75.81" cy="108.64" rx="75.81" ry="43.77"/><g><circle class="ar" cx="166.57" cy="58.97" r="9"/><path class="ah" d="M169.14,58.97c0,1.42-1.15,2.57-2.57,2.57s-2.57-1.15-2.57-2.57,1.15-2.57,2.57-2.57,2.57,1.15,2.57,2.57Z"/></g><g><circle class="as" cx="75.81" cy="111.48" r="9"/><circle class="ah" cx="75.81" cy="111.48" r="2.57"/></g><g><circle class="at" cx="272.81" cy="160.31" r="9" transform="translate(-40.58 116.6) rotate(-22.5)"/><path class="ah" d="M275.38,160.31c0,1.42-1.15,2.57-2.57,2.57s-2.57-1.15-2.57-2.57,1.15-2.57,2.57-2.57,2.57,1.15,2.57,2.57Z"/></g><g><circle class="au" cx="289.5" cy="150.48" r="9"/><circle class="ah" cx="289.5" cy="150.48" r="2.57"/></g><g><circle class="av" cx="306.19" cy="140.79" r="9"/><path class="ah" d="M308.75,140.79c0,1.42-1.15,2.57-2.57,2.57s-2.57-1.15-2.57-2.57,1.15-2.57,2.57-2.57,2.57,1.15,2.57,2.57Z"/></g></g></g><g><rect class="al" x="824.05" y="390.07" width="57" height="1069.67"/><rect class="al" x="1188.44" y="764.51" width="57" height="728.78" transform="translate(2345.83 -88.04) rotate(90)"/><rect class="al" x="1324.44" y="390.07" width="57" height="767.33"/><rect class="al" x="490.81" y="597.61" width="57" height="723.48" transform="translate(1478.65 440.04) rotate(90)"/><rect class="al" x="1070.81" y="390.07" width="57" height="767.33"/></g></g></g></svg>